HIERARCHY
ROOT hips
{
  OFFSET 0 10.6860622 2.3727825e-15
  CHANNELS 6 Xposition Yposition Zposition Yrotation Xrotation Zrotation
  JOINT leftUpperLeg
  {
    OFFSET 0.6642549969 -0.9402397400000004 0
    CHANNELS 3 Yrotation Xrotation Zrotation
    JOINT leftLowerLeg
    {
      OFFSET 0 -3.997221335632195 0
      CHANNELS 3 Yrotation Xrotation Zrotation
      JOINT leftFoot
      {
        OFFSET -0.13777839790000004 -4.6145792000000005 -0.22186036399999998
        CHANNELS 3 Yrotation Xrotation Zrotation
        JOINT leftToes
        {
          OFFSET -0.03777410834999995 -0.9130806927000008 0.85230013
          CHANNELS 3 Yrotation Xrotation Zrotation
          End Site
          {
            OFFSET -0.03777410834999995 -0.9130806927000008 0.85230013
          }
        }
      }
    }
  }
  JOINT rightUpperLeg
  {
    OFFSET -0.6642778626 -0.9402397400000004 0
    CHANNELS 3 Yrotation Xrotation Zrotation
    JOINT rightLowerLeg
    {
      OFFSET 0 -3.997221452859387 0
      CHANNELS 3 Yrotation Xrotation Zrotation
      JOINT rightFoot
      {
        OFFSET 0.1377926176 -4.6145792000000005 -0.22185782299999995
        CHANNELS 3 Yrotation Xrotation Zrotation
        JOINT rightToes
        {
          OFFSET 0.037780746850000047 -0.9130806927000008 0.85230167
          CHANNELS 3 Yrotation Xrotation Zrotation
          End Site
          {
            OFFSET 0.037780746850000047 -0.9130806927000008 0.85230167
          }
        }
      }
    }
  }
  JOINT spine
  {
    OFFSET 0 0.13988381660000015 0
    CHANNELS 3 Yrotation Xrotation Zrotation
    JOINT chest
    {
      OFFSET 0 0.6191039003973773 0
      CHANNELS 3 Yrotation Xrotation Zrotation
      JOINT upperChest
      {
        OFFSET 0 0.9855186130586943 0
        CHANNELS 3 Yrotation Xrotation Zrotation
        JOINT leftShoulder
        {
          OFFSET 0.1807663869 1.5087829790000005 0
          CHANNELS 3 Yrotation Xrotation Zrotation
          JOINT leftUpperArm
          {
            OFFSET 0.5985063006419806 0 0
            CHANNELS 3 Yrotation Xrotation Zrotation
            JOINT leftLowerArm
            {
              OFFSET 2.2993332369501065 0 0
              CHANNELS 3 Yrotation Xrotation Zrotation
              JOINT leftHand
              {
                OFFSET 2.395047042602395 0 0
                CHANNELS 3 Yrotation Xrotation Zrotation
                JOINT leftIndexProximal
                {
                  OFFSET 0.5766295810000004 0.04556643899499946 0.17265095988184
                  CHANNELS 3 Yrotation Xrotation Zrotation
                  JOINT leftIndexIntermediate
                  {
                    OFFSET 0.2957229000000008 -0.019352197700001517 -0.007932640616999987
                    CHANNELS 3 Yrotation Xrotation Zrotation
                    JOINT leftIndexDistal
                    {
                      OFFSET 0.19008243099999922 -0.012484908149998475 -0.002786250786000012
                      CHANNELS 3 Yrotation Xrotation Zrotation
                      End Site
                      {
                        OFFSET 0.19008243099999922 -0.012484908149998475 -0.002786250786000012
                      }
                    }
                  }
                }
                JOINT leftMiddleProximal
                {
                  OFFSET 0.5834975091000001 0.0524350405149987 0.02204081888183999
                  CHANNELS 3 Yrotation Xrotation Zrotation
                  JOINT leftMiddleIntermediate
                  {
                    OFFSET 0.33880573540000003 -0.019871473270000717 -0.00000971183179999946
                    CHANNELS 3 Yrotation Xrotation Zrotation
                    JOINT leftMiddleDistal
                    {
                      OFFSET 0.20676022730000088 -0.012221336379999448 0.0001471936708000235
                      CHANNELS 3 Yrotation Xrotation Zrotation
                      End Site
                      {
                        OFFSET 0.20676022730000088 -0.012221336379999448 0.0001471936708000235
                      }
                    }
                  }
                }
                JOINT leftLittleProximal
                {
                  OFFSET 0.5344154683999995 -0.012880921405001189 -0.24414037221816004
                  CHANNELS 3 Yrotation Xrotation Zrotation
                  JOINT leftLittleIntermediate
                  {
                    OFFSET 0.21758961730000093 -0.011650919939999227 0.011893592810000034
                    CHANNELS 3 Yrotation Xrotation Zrotation
                    JOINT leftLittleDistal
                    {
                      OFFSET 0.1475273964999999 -0.008152365682999818 0.006001092492999946
                      CHANNELS 3 Yrotation Xrotation Zrotation
                      End Site
                      {
                        OFFSET 0.1475273964999999 -0.008152365682999818 0.006001092492999946
                      }
                    }
                  }
                }
                JOINT leftRingProximal
                {
                  OFFSET 0.5799399463000003 0.026911854694997794 -0.12150566991816003
                  CHANNELS 3 Yrotation Xrotation Zrotation
                  JOINT leftRingIntermediate
                  {
                    OFFSET 0.26167887460000006 -0.013480186499999602 0.010996293000000053
                    CHANNELS 3 Yrotation Xrotation Zrotation
                    JOINT leftRingDistal
                    {
                      OFFSET 0.17667108799999987 -0.008990287899999228 0.0055541023999999065
                      CHANNELS 3 Yrotation Xrotation Zrotation
                      End Site
                      {
                        OFFSET 0.17667108799999987 -0.008990287899999228 0.0055541023999999065
                      }
                    }
                  }
                }
                JOINT leftThumbProximal
                {
                  OFFSET 0.11018806699999972 -0.09448718900500053 0.17047963138184
                  CHANNELS 3 Yrotation Xrotation Zrotation
                  JOINT leftThumbIntermediate
                  {
                    OFFSET 0.31062601459999983 -0.08126270900000132 0.15443142000000007
                    CHANNELS 3 Yrotation Xrotation Zrotation
                    JOINT leftThumbDistal
                    {
                      OFFSET 0.21627175790000086 -0.08833193599999878 0.018771167799999988
                      CHANNELS 3 Yrotation Xrotation Zrotation
                      End Site
                      {
                        OFFSET 0.21627175790000086 -0.08833193599999878 0.018771167799999988
                      }
                    }
                  }
                }
              }
            }
          }
        }
        JOINT neck
        {
          OFFSET 0 1.5463305265074576 0
          CHANNELS 3 Yrotation Xrotation Zrotation
          JOINT head
          {
            OFFSET 0 0.8456443600000344 0
            CHANNELS 3 Yrotation Xrotation Zrotation
            JOINT leftEye
            {
              OFFSET 0.30408573140000006 0.5104519199999995 0.1276382305
              CHANNELS 3 Yrotation Xrotation Zrotation
              End Site
              {
                OFFSET 0.30408573140000006 0.5104519199999995 0.1276382305
              }
            }
            JOINT rightEye
            {
              OFFSET -0.30409491089999996 0.5104519199999995 0.1276379445
              CHANNELS 3 Yrotation Xrotation Zrotation
              End Site
              {
                OFFSET -0.30409491089999996 0.5104519199999995 0.1276379445
              }
            }
            JOINT jaw
            {
              OFFSET -3.155239131000001e-7 -0.11984121820000082 0.60178107
              CHANNELS 3 Yrotation Xrotation Zrotation
              End Site
              {
                OFFSET -3.155239131000001e-7 -0.11984121820000082 0.60178107
              }
            }
          }
        }
        JOINT rightShoulder
        {
          OFFSET -0.1807303465 1.5087829790000005 0
          CHANNELS 3 Yrotation Xrotation Zrotation
          JOINT rightUpperArm
          {
            OFFSET -0.5985063796536958 0 0
            CHANNELS 3 Yrotation Xrotation Zrotation
            JOINT rightLowerArm
            {
              OFFSET -2.2993322059002854 0 0
              CHANNELS 3 Yrotation Xrotation Zrotation
              JOINT rightHand
              {
                OFFSET -2.395045314457259 0 0
                CHANNELS 3 Yrotation Xrotation Zrotation
                JOINT rightIndexProximal
                {
                  OFFSET -0.5764487688300002 0.0441371204405987 0.17361932004999997
                  CHANNELS 3 Yrotation Xrotation Zrotation
                  JOINT rightIndexIntermediate
                  {
                    OFFSET -0.29573011380000047 -0.01934826376999843 -0.007698921482999974
                    CHANNELS 3 Yrotation Xrotation Zrotation
                    JOINT rightIndexDistal
                    {
                      OFFSET -0.19008373999999884 -0.012503266380000655 -0.0026365778999999897
                      CHANNELS 3 Yrotation Xrotation Zrotation
                      End Site
                      {
                        OFFSET -0.19008373999999884 -0.012503266380000655 -0.0026365778999999897
                      }
                    }
                  }
                }
                JOINT rightMiddleProximal
                {
                  OFFSET -0.5834852037300005 0.05211639405060153 0.02307162440000001
                  CHANNELS 3 Yrotation Xrotation Zrotation
                  JOINT rightMiddleIntermediate
                  {
                    OFFSET -0.33880114510000003 -0.019952774050000954 0.0002455003561999819
                    CHANNELS 3 Yrotation Xrotation Zrotation
                    JOINT rightMiddleDistal
                    {
                      OFFSET -0.20675694929999955 -0.012273788999999091 0.00030209124000002766
                      CHANNELS 3 Yrotation Xrotation Zrotation
                      End Site
                      {
                        OFFSET -0.20675694929999955 -0.012273788999999091 0.00030209124000002766
                      }
                    }
                  }
                }
                JOINT rightLittleProximal
                {
                  OFFSET -0.5346811737299992 -0.011214256288399227 -0.24363941305000003
                  CHANNELS 3 Yrotation Xrotation Zrotation
                  JOINT rightLittleIntermediate
                  {
                    OFFSET -0.21757715980000092 -0.011771559690000988 0.01201554387
                    CHANNELS 3 Yrotation Xrotation Zrotation
                    JOINT rightLittleDistal
                    {
                      OFFSET -0.1475201849000004 -0.00822055339600003 0.006082065407000015
                      CHANNELS 3 Yrotation Xrotation Zrotation
                      End Site
                      {
                        OFFSET -0.1475201849000004 -0.00822055339600003 0.006082065407000015
                      }
                    }
                  }
                }
                JOINT rightRingProximal
                {
                  OFFSET -0.5800810755299999 0.027657985680600072 -0.12066365025000003
                  CHANNELS 3 Yrotation Xrotation Zrotation
                  JOINT rightRingIntermediate
                  {
                    OFFSET -0.26166445029999974 -0.013623118409999302 0.011164098990000045
                    CHANNELS 3 Yrotation Xrotation Zrotation
                    JOINT rightRingDistal
                    {
                      OFFSET -0.17666387530000027 -0.009072900100000503 0.005668185599999959
                      CHANNELS 3 Yrotation Xrotation Zrotation
                      End Site
                      {
                        OFFSET -0.17666387530000027 -0.009072900100000503 0.005668185599999959
                      }
                    }
                  }
                }
                JOINT rightThumbProximal
                {
                  OFFSET -0.10997596379000074 -0.09577489355940072 0.16989765924999997
                  CHANNELS 3 Yrotation Xrotation Zrotation
                  JOINT rightThumbIntermediate
                  {
                    OFFSET -0.31036620999999986 -0.08229339117999834 0.15440884469999996
                    CHANNELS 3 Yrotation Xrotation Zrotation
                    JOINT rightThumbDistal
                    {
                      OFFSET -0.21631306399999906 -0.08825326400000111 0.018656797720000014
                      CHANNELS 3 Yrotation Xrotation Zrotation
                      End Site
                      {
                        OFFSET -0.21631306399999906 -0.08825326400000111 0.018656797720000014
                      }
                    }
                  }
                }
              }
            }
          }
        }
      }
    }
  }
}
MOTION
Frames: 9
Frame Time: 0.03333333333333333
0 11.682712981546562 0 0 0 0 0 0 -5.826343164929014 -0.3712483961610101 -3.6333298826370974 5.838118207697276 0 0 0 0 0 0 0 0 5.826343164929014 0.3712483961610101 -3.6333298826370974 -5.838118207697276 0 0 0 0 0 0 0 -4.610651315171937 0 0 3.0831277533083026 0 0 0 0 0 1.5275236235667615 0 0 0 0 0 0 0 0 0 0 0 0 0 0 0 0 0 0 0 0 0 0 0 0 0 0 0 0 0 0 0 0 0 0 0 0 0 0 0 0 0 0 0 0 0 0 0 0 0 0 0 0 0 0 0 0 1.5275236235667615 0 0 0 0 0 0 0 0 0 0 0 0 0 0 1.5275236235667615 0 0 0 0 0 0 0 0 0 0 0 0 0 0 0 0 0 0 0 0 0 0 0 0 0 0 0 0 0 0 0 0 0 0 0 0 0 0 0 0 0 0 0 0 0 0 0 0 0 0 0 0 0 0 0
0 -9.949070143178398 0 -90.0026200774395 -1.001068088476999 89.99914586960621 0.6744098668801211 -32.4330278680137 -18.607464305603152 14.389555749533827 40.958242363812786 34.52083849431676 -19.416003309931813 6.135535705683162 -8.219640644024258 0 0 0 -0.42180990937304663 -4.605749750631614 2.4285831931335298 -8.336833927337148 51.151843658047106 -5.468949842021091 9.659139618829617 20.452626330442968 3.795200036696664 0 0 0 -0.30138895402670274 -5.055703316934338 0.3187836681634296 -1.1354198426155617 2.7691957099462887 0.25991880672395823 0 0 0 3.0270676210777925 -7.126728037504438 -30.30002763672768 -14.649229226555681 27.31913232631089 -43.45862936227649 -66.47713320868255 -16.93646866254961 -5.228119067203272 -17.043153124950788 -22.548319096565283 -8.139979830460597 0 0 0 0 0 0 0 0 0 0 0 0 0 0 0 0 0 0 0 0 0 0 0 0 0 0 0 0 0 0 0 0 0 0 0 0 0 0 0 0 0 0 0 0 0 -0.06292661626485496 0.744078244298693 3.8271379094855895 -0.6791437751093492 -1.51151891763048 19.171626670688177 0 0 0 0 0 0 0 0 0 -14.467388968383874 -2.398069803464438 -25.9523245671489 166.4421377452134 -62.73546968776465 -75.77949435712318 47.619713212128204 -0.20330987854400528 -15.735761368907939 10.359778649804767 -9.630164835879116 -23.318529246656215 0 0 0 0 0 0 0 0 0 0 0 0 0 0 0 0 0 0 0 0 0 0 0 0 0 0 0 0 0 0 0 0 0 0 0 0 0 0 0 0 0 0 0 0 0
0 -9.949070143178398 0 -90.0026200774395 -1.001068088476999 89.99914586960621 0.6744098668801211 -32.4330278680137 -18.607464305603152 14.389555749533827 40.958242363812786 34.52083849431676 -19.416003309931813 6.135535705683162 -8.219641493895525 0 0 0 -0.42180990937304663 -4.605749750631614 2.4285831931335298 -8.336833927337148 51.151843658047106 -5.468949842021091 9.659140517127037 20.452626330442968 3.795200491305217 0 0 0 -0.30138895402670274 -5.055703316934338 0.3187836681634296 -1.1354198426155617 2.7691957099462887 0.25991880672395823 0 0 0 3.0270676210777925 -7.126728037504438 -30.30002763672768 -14.66152080258138 26.53829415957369 -43.191333435461864 -67.40241521315781 -16.73322953730238 -4.921300921545467 -16.490248725401923 -22.500968093033705 -8.395556693367455 0 0 0 0 0 0 0 0 0 0 0 0 0 0 0 0 0 0 0 0 0 0 0 0 0 0 0 0 0 0 0 0 0 0 0 0 0 0 0 0 0 0 0 0 0 -0.06137411445313733 0.7487400839018769 3.654891043641015 -0.7800615318906207 -1.511892893926043 18.93054276888256 0 0 0 0 0 0 0 0 0 -14.467388968383874 -2.398069803464438 -25.9523245671489 166.44213334404148 -62.73547714268675 -75.77948979114382 47.619713212128204 -0.20330987854400528 -15.735761368907939 10.359778649804767 -9.630164835879116 -23.318529246656215 0 0 0 0 0 0 0 0 0 0 0 0 0 0 0 0 0 0 0 0 0 0 0 0 0 0 0 0 0 0 0 0 0 0 0 0 0 0 0 0 0 0 0 0 0
0 -9.949070143178398 0 -90.0026200774395 -1.001068088476999 89.99914586960621 0.6744098668801211 -32.4330278680137 -18.607464305603152 14.38955687335609 40.958246885993844 34.520841057063706 -19.416003309931813 6.135535705683162 -8.219640644024258 0 0 0 -0.42180990937304663 -4.605749750631614 2.4285831931335298 -8.336833927337148 51.151843658047106 -5.468949842021091 9.659139618829617 20.452628152873697 3.7952002640009406 0 0 0 -0.30138895402670274 -5.055703316934338 0.3187836681634296 -1.1354198426155617 2.7691957099462887 0.25991880672395823 0 0 0 3.0270676210777925 -7.126728037504438 -30.30002763672768 -14.677822195714654 25.75526505378998 -42.92486523806672 -68.32880948405784 -16.52454291179963 -4.617215754304981 -15.937163863245756 -22.451277602025275 -8.650816051067144 0 0 0 0 0 0 0 0 0 0 0 0 0 0 0 0 0 0 0 0 0 0 0 0 0 0 0 0 0 0 0 0 0 0 0 0 0 0 0 0 0 0 0 0 0 -0.05983543461936939 0.7534071582778489 3.482583155328918 -0.8810639324917618 -1.5126925180228192 18.68924933565453 0 0 0 0 0 0 0 0 0 -14.467388968383874 -2.3980706579864406 -25.952326103850346 166.4421377452134 -62.73546968776465 -75.77949435712318 47.619713212128204 -0.20330987854400528 -15.735761368907939 10.359778649804767 -9.630164835879116 -23.318529246656215 0 0 0 0 0 0 0 0 0 0 0 0 0 0 0 0 0 0 0 0 0 0 0 0 0 0 0 0 0 0 0 0 0 0 0 0 0 0 0 0 0 0 0 0 0
0 -9.949070143178398 0 -90.0026200774395 -1.001068088476999 89.99914586960621 0.6744098668801211 -32.4330278680137 -18.607464305603152 14.389555749533827 40.958242363812786 34.52083849431676 -19.416003309931813 6.135535705683162 -8.219641493895525 0 0 0 -0.42180990937304663 -4.605749750631614 2.4285831931335298 -8.336833927337148 51.151843658047106 -5.468949842021091 9.659140517127037 20.452626330442968 3.795200491305217 0 0 0 -0.30138895402670274 -5.055703316934338 0.3187836681634296 -1.1354198426155617 2.7691957099462887 0.25991880672395823 0 0 0 3.0270676210777925 -7.126728037504438 -30.30002763672768 -14.698083107202285 24.97012468196433 -42.65911828995644 -69.25617083165086 -16.31043977987383 -4.3159995944446035 -15.383951006297318 -22.399259337419153 -8.905715178056774 0 0 0 0 0 0 0 0 0 0 0 0 0 0 0 0 0 0 0 0 0 0 0 0 0 0 0 0 0 0 0 0 0 0 0 0 0 0 0 0 0 0 0 0 0 -0.05830961567745177 0.7580822424815876 3.31021120284967 -0.9821496949179835 -1.5139184309453482 18.447756073865264 0 0 0 0 0 0 0 0 0 -14.467388968383874 -2.398069803464438 -25.9523245671489 166.44213334404148 -62.73547714268675 -75.77948979114382 47.619713212128204 -0.20330987854400528 -15.735761368907939 10.359779501664491 -9.630165701856022 -23.318529246656215 0 0 0 0 0 0 0 0 0 0 0 0 0 0 0 0 0 0 0 0 0 0 0 0 0 0 0 0 0 0 0 0 0 0 0 0 0 0 0 0 0 0 0 0 0
0 -9.949070143178398 0 -90.0026200774395 -1.001068088476999 89.99914586960621 0.6744098668801211 -32.4330278680137 -18.607466222963467 14.389556844612098 40.958242363812786 34.52084035727468 -19.416003309931813 6.135535705683162 -8.219641493895525 0 0 0 -0.42180990937304663 -4.605749750631614 2.4285831931335298 -8.336833927337148 51.151843658047106 -5.468949842021091 9.659139618829617 20.452628152873697 3.7952002640009406 0 0 0 -0.30138895402670274 -5.055703316934338 0.3187836681634296 -1.1354198426155617 2.7691957099462887 0.25991880672395823 0 0 0 3.0270691247137527 -7.126728467714994 -30.30003234468832 -14.722298795029475 24.182983016745283 -42.39404345082193 -70.1843701535813 -16.09097589049282 -4.017795217695307 -14.830650983359039 -22.34492140970833 -9.160222579007003 0 0 0 0 0 0 0 0 0 0 0 0 0 0 0 0 0 0 0 0 0 0 0 0 0 0 0 0 0 0 0 0 0 0 0 0 0 0 0 0 0 0 0 0 0 -0.05679771868464359 0.7627623480975031 3.13777936372821 -1.083315250518148 -1.515571914525809 18.20605529403023 0 0 0 0 0 0 0 0 0 -14.467391450659223 -2.398069803464438 -25.952326103850346 166.4421377452134 -62.73546968776465 -75.77949435712318 47.61972033873713 -0.20330987854400528 -15.735763012471237 10.359779501664491 -9.630163969902211 -23.318529246656215 0 0 0 0 0 0 0 0 0 0 0 0 0 0 0 0 0 0 0 0 0 0 0 0 0 0 0 0 0 0 0 0 0 0 0 0 0 0 0 0 0 0 0 0 0
0 -9.949070143178398 0 -90.0026200774395 -1.001068088476999 89.99914586960621 0.6744098668801211 -32.4330278680137 -18.607466222963467 14.389555749533827 40.958242363812786 34.52083849431676 -19.416003309931813 6.135535705683162 -8.219641493895525 0 0 0 -0.42180990937304663 -4.605749750631614 2.4285831931335298 -8.336833927337148 51.151843658047106 -5.468949842021091 9.659140517127037 20.452626330442968 3.795200491305217 0 0 0 -0.30138895402670274 -5.055703316934338 0.3187836681634296 -1.1354198426155617 2.7691957099462887 0.25991880672395823 0 0 0 3.0270676210777925 -7.126728037504438 -30.30002763672768 -14.750396492986797 23.393912557062706 -42.12950680633948 -71.11322628941367 -15.86618542068164 -3.722732159690613 -14.277300534768369 -22.288251721349685 -9.41429077662937 0 0 0 0 0 0 0 0 0 0 0 0 0 0 0 0 0 0 0 0 0 0 0 0 0 0 0 0 0 0 0 0 0 0 0 0 0 0 0 0 0 0 0 0 0 -0.055298789548258176 0.7674482222921142 2.9652877723863083 -1.1845571156965413 -1.5176540373361442 17.96416091607206 0 0 0 0 0 0 0 0 0 -14.467390623234111 -2.3980706579864406 -25.952327640551754 166.44211807209234 -62.73548459761073 -75.77946625563328 47.619715514081264 -0.20330987854400528 -15.735761368907939 10.359779501664491 -9.630164835879116 -23.318530837141267 0 0 0 0 0 0 0 0 0 0 0 0 0 0 0 0 0 0 0 0 0 0 0 0 0 0 0 0 0 0 0 0 0 0 0 0 0 0 0 0 0 0 0 0 0
0 -9.949070143178398 0 -90.00262193764098 -1.001068088476999 89.99913786837361 0.6744098668801211 -32.4330278680137 -18.607464305603152 14.389555749533827 40.958242363812786 34.52083849431676 -19.416003309931813 6.135535705683162 -8.219639794152988 0 0 0 -0.42180990937304663 -4.605749750631614 2.4285831931335298 -8.33683111782664 51.15183821357123 -5.468947629474454 9.659138720532189 20.452626330442968 3.7951995820881104 0 0 0 -0.30138895402670274 -5.055703316934338 0.3187836681634296 -1.1354198426155617 2.7691957099462887 0.25991880672395823 0 0 0 3.0270680506880674 -7.126728467714994 -30.300019957232852 -14.782363594594335 22.603023586391398 -41.865455461416744 -72.04266130238237 -15.636137802823866 -3.4309495444163174 -13.723939683179545 -22.229260433573437 -9.667885134110174 0 0 0 0 0 0 0 0 0 0 0 0 0 0 0 0 0 0 0 0 0 0 0 0 0 0 0 0 0 0 0 0 0 0 0 0 0 0 0 0 0 0 0 0 0 -0.05381386894475775 0.7721408256982419 2.7927361411836378 -1.2858735586264731 -1.5201654411721879 17.72206629596348 0 0 0 0 0 0 0 0 0 -14.467386459596476 -2.398069803464438 -25.9523245671489 166.44217463036483 -62.73546223284444 -75.77953421397812 47.619713212128204 -0.20331083904540434 -15.735761368907939 10.359777175035319 -9.630163103925309 -23.31852469452434 0 0 0 0 0 0 0 0 0 0 0 0 0 0 0 0 0 0 0 0 0 0 0 0 0 0 0 0 0 0 0 0 0 0 0 0 0 0 0 0 0 0 0 0 0
0 -9.949070143178398 0 -90.00261993755434 -1.001075987088804 89.99913786837361 0.6744098668801211 -32.4330278680137 -18.607464305603152 14.389555749533827 40.958237841632034 34.52083593157016 -19.416003309931813 6.135535705683162 -8.219639794152988 0 0 0 -0.42180990937304663 -4.605749750631614 2.4285831931335298 -8.336832464562267 51.15183821357123 -5.4689489843974926 9.659139618829617 20.452626330442968 3.795200036696664 0 0 0 -0.30138895402670274 -5.055703316934338 0.3187836681634296 -1.1354188811860841 2.7691957099462887 0.2599188868579904 0 0 0 3.0270676210777925 -7.126728037504438 -30.30002763672768 -14.818172326789108 21.810402534050937 -41.601791367310796 -72.97248222339306 -15.400877271258357 -3.1425781069158107 -13.170623925382115 -22.167954104494722 -9.920968786688722 0 0 0 0 0 0 0 0 0 0 0 0 0 0 0 0 0 0 0 0 0 0 0 0 0 0 0 0 0 0 0 0 0 0 0 0 0 0 0 0 0 0 0 0 0 -0.05234300695368155 0.7768390376886624 2.620126532167279 -1.3872614726822807 -1.5231074086488974 17.479776142998855 0 0 0 0 0 0 0 0 0 -14.467389795808998 -2.3980700170949385 -25.952321534613212 166.4421377452134 -62.73546968776465 -75.77949435712318 47.619713212128204 -0.20331083904540434 -15.73575972534462 10.359778649804767 -9.630164835879116 -23.318529246656215 0 0 0 0 0 0 0 0 0 0 0 0 0 0 0 0 0 0 0 0 0 0 0 0 0 0 0 0 0 0 0 0 0 0 0 0 0 0 0 0 0 0 0 0 0
